<?xml version="1.0" encoding="UTF-8"?>
<svg version="1.1" xmlns="http://www.w3.org/2000/svg" width="1032" height="256">
    <path d="M0 0 C0.97369034 -0.00671722 1.94738068 -0.01343445 2.95057678 -0.02035522 C6.14589651 -0.03923693 9.34100502 -0.04325467 12.53637695 -0.04541016 C14.77684106 -0.05184563 17.01730434 -0.05857454 19.25776672 -0.06558228 C23.9472549 -0.07753105 28.63666956 -0.08126564 33.32617188 -0.08007812 C39.30303879 -0.07987525 45.27942859 -0.10715647 51.25618267 -0.14162254 C55.88306293 -0.16398163 60.50983008 -0.16791288 65.1367588 -0.16685867 C67.33853611 -0.16920189 69.54031714 -0.17795228 71.74204063 -0.19352341 C93.22052074 -0.33118909 110.55257712 3.14085224 126.8371582 18.29052734 C138.57457567 30.27849724 145.14796634 45.20699257 145.12768555 61.98461914 C145.13440277 62.80225235 145.14112 63.61988556 145.14804077 64.46229553 C145.16687947 67.13817598 145.17093804 69.81380364 145.1730957 72.48974609 C145.17953441 74.37148639 145.18626354 76.25322571 145.19326782 78.13496399 C145.20520605 82.07120074 145.20895231 86.00734996 145.20776367 89.94360352 C145.20756091 94.95196218 145.23483467 99.95975073 145.26930809 104.96797466 C145.29170582 108.85368859 145.29559726 112.73926823 145.29454422 116.62504005 C145.29688194 118.46956148 145.30560048 120.31408767 145.32120895 122.15854454 C145.47637262 142.39077661 140.99547828 159.07156656 126.8371582 174.29052734 C114.25621564 186.60852416 99.1395218 192.59865483 81.67431641 192.58105469 C80.70062607 192.58777191 79.72693573 192.59448914 78.72373962 192.60140991 C75.5284199 192.62029162 72.33331138 192.62430935 69.13793945 192.62646484 C66.89747535 192.63290032 64.65701207 192.63962923 62.41654968 192.64663696 C57.7270615 192.65858573 53.03764685 192.66232033 48.34814453 192.66113281 C42.37127761 192.66092994 36.39488782 192.68821116 30.41813374 192.72267723 C25.79125348 192.74503632 21.16448633 192.74896757 16.5375576 192.74791336 C14.3357803 192.75025657 12.13399926 192.75900697 9.93227577 192.77457809 C-11.54620433 192.91224377 -28.87826072 189.44020245 -45.1628418 174.29052734 C-56.90025927 162.30255745 -63.47364994 147.37406212 -63.45336914 130.59643555 C-63.46008636 129.77880234 -63.46680359 128.96116913 -63.47372437 128.11875916 C-63.49256307 125.44287871 -63.49662163 122.76725104 -63.4987793 120.09130859 C-63.505218 118.2095683 -63.51194714 116.32782897 -63.51895142 114.4460907 C-63.53088965 110.50985395 -63.53463591 106.57370473 -63.53344727 102.63745117 C-63.5332445 97.62909251 -63.56051827 92.62130396 -63.59499168 87.61308002 C-63.61738942 83.7273661 -63.62128086 79.84178646 -63.62022781 75.95601463 C-63.62256554 74.1114932 -63.63128408 72.26696702 -63.64689255 70.42251015 C-63.80205621 50.19027808 -59.32116188 33.50948813 -45.1628418 18.29052734 C-32.58189923 5.97253052 -17.46520539 -0.01760014 0 0 Z " fill="#FBFBFC" transform="translate(63.162841796875,31.70947265625)"/>
    <path d="M0 0 C7.92 0 15.84 0 24 0 C24.33 18.81 24.66 37.62 25 57 C27.97 54.36 30.94 51.72 34 49 C44.28419786 43.36482309 55.7493254 43.49877739 66.875 46.625 C80.23035439 51.36771524 90.93725688 59.993908 97.8203125 72.515625 C103.42797033 84.32512957 104.72791269 98.42429453 101 111 C95.45857689 125.09687806 86.2359134 137.03986596 72.09765625 143.28125 C61.18492523 147.38267911 49.63434825 148.95701705 38.359375 145.125 C33.24136883 142.6846262 28.98616591 138.98616591 25 135 C24.67 137.97 24.34 140.94 24 144 C16.08 144 8.16 144 0 144 C0 96.48 0 48.96 0 0 Z M32 77 C27.03869611 85.02034619 24.62169029 93.07589296 26.49609375 102.4921875 C28.83699946 111.19453753 32.33627548 116.47384279 40.1328125 121.0546875 C46.12376105 124.08776187 54.08486523 124.20130526 60.45703125 122.24609375 C62.4253854 121.28637997 64.19666385 120.23952461 66 119 C66.886875 118.4225 67.77375 117.845 68.6875 117.25 C74.62014263 111.47769906 77.85502135 104.67122373 78.06640625 96.40234375 C77.65494326 87.5371866 74.74232882 80.27105941 68.3125 74.0625 C63.11326695 69.89525082 57.45717477 68.42332752 50.9375 67.625 C43.37808849 68.59003126 36.97823037 71.05584433 32 77 Z " fill="#B12222" transform="translate(637,48)"/>
    <path d="M0 0 C12.50482383 10.26447148 12.50482383 10.26447148 14.3125 15.6875 C10.99000493 17.70596778 7.65299828 19.69899755 4.3125 21.6875 C3.47847656 22.19796875 2.64445312 22.7084375 1.78515625 23.234375 C1.01042969 23.69328125 0.23570312 24.1521875 -0.5625 24.625 C-1.61050781 25.25728516 -1.61050781 25.25728516 -2.6796875 25.90234375 C-5.23454145 26.90142088 -6.17327147 26.76088218 -8.6875 25.6875 C-10.27307575 24.47189192 -11.81102169 23.19307298 -13.3125 21.875 C-22.96096092 13.91073788 -33.39045481 11.69872287 -45.6875 12.6875 C-56.74963718 15.22468743 -66.12770883 21.44490147 -72.6875 30.6875 C-80.06023441 43.14487883 -81.78603169 56.86812402 -79.03515625 71.05078125 C-78.11979549 73.76543483 -77.04491316 76.16601443 -75.6875 78.6875 C-75.20152344 79.61820312 -74.71554687 80.54890625 -74.21484375 81.5078125 C-68.91859617 90.69799152 -61.47173265 97.46198261 -51.37890625 101 C-39.67965005 103.98848925 -28.83461027 102.85168446 -18.3125 96.875 C-14.21189329 94.23606116 -10.95335902 91.29713365 -7.6875 87.6875 C-2.84734684 89.45284644 1.5960127 91.88286725 6.125 94.3125 C6.91326172 94.73273438 7.70152344 95.15296875 8.51367188 95.5859375 C10.44785326 96.6175009 12.38073983 97.65141172 14.3125 98.6875 C7.57095918 112.53077561 -6.63990002 120.77749764 -20.6875 125.6875 C-36.71537693 130.7761051 -54.78812831 127.94780753 -69.5625 120.5 C-75.68619177 116.94992405 -80.72144226 112.70484232 -85.6875 107.6875 C-86.38488281 107.02363281 -87.08226562 106.35976562 -87.80078125 105.67578125 C-96.65664871 96.6479552 -102.25855105 83.99975847 -104.6875 71.6875 C-104.914375 70.594375 -105.14125 69.50125 -105.375 68.375 C-107.32748744 45.33564821 -101.43080787 25.36243228 -86.625 7.5625 C-64.21821034 -16.36597317 -26.15065446 -19.5675904 0 0 Z " fill="#FCFCFD" transform="translate(352.6875,67.3125)"/>
    <path d="M0 0 C7.92 0 15.84 0 24 0 C24.33 17.82 24.66 35.64 25 54 C27.97 52.02 30.94 50.04 34 48 C43.35043867 43.7498006 54.07997639 43.37086309 63.875 46.5625 C75.21505468 51.36475198 82.42139145 59.70675579 87.23828125 70.82421875 C88.85335042 75.43751889 89.12283516 79.75721105 89.11352539 84.6262207 C89.11367142 85.27068649 89.11381744 85.91515228 89.1139679 86.57914734 C89.11327506 88.69472704 89.10551231 90.81021706 89.09765625 92.92578125 C89.09578983 94.39837089 89.09436699 95.87096115 89.09336853 97.34355164 C89.08956096 101.20852388 89.07974579 105.0734582 89.06866455 108.93841553 C89.0584125 112.88667284 89.05386279 116.83493632 89.04882812 120.78320312 C89.03812187 128.52215466 89.02053941 136.26106717 89 144 C80.75 144 72.5 144 64 144 C63.99589111 142.19402344 63.99178223 140.38804687 63.98754883 138.52734375 C63.96809166 132.53605082 63.92568996 126.54528157 63.86790943 120.55426025 C63.83373189 116.92459986 63.80854405 113.29535621 63.80444336 109.66552734 C63.80014023 106.15731427 63.77151437 102.65003977 63.72656822 99.14212036 C63.70740673 97.16376711 63.71293101 95.18522401 63.71894836 93.20678711 C63.60255394 85.97380288 63.08750992 80.44951365 58 75 C53.58696582 71.46777661 48.72079548 69.72506343 43 70 C37.56166035 71.11135249 32.91981062 72.96490083 29 77 C25.89901119 82.31598081 24.88900204 86.59586807 24.79467773 92.68652344 C24.77473251 93.82740417 24.75478729 94.96828491 24.73423767 96.14373779 C24.70916893 97.98297821 24.70916893 97.98297821 24.68359375 99.859375 C24.66281265 101.11888977 24.64203156 102.37840454 24.62062073 103.67608643 C24.56633698 107.01658871 24.51607931 110.35710222 24.46777344 113.69769287 C24.41744296 117.10971393 24.3618173 120.52164823 24.30664062 123.93359375 C24.19954883 130.62232876 24.09825424 137.31112957 24 144 C16.08 144 8.16 144 0 144 C0 96.48 0 48.96 0 0 Z " fill="#B12222" transform="translate(752,48)"/>
    <path d="M0 0 C1.56544254 1.19873952 3.1092019 2.42657061 4.625 3.6875 C5.26050781 4.21085937 5.89601563 4.73421875 6.55078125 5.2734375 C17.75354044 15.45776403 21.63054207 28.91998455 22.609375 43.48828125 C22.625 46.6875 22.625 46.6875 21.625 51.6875 C-1.475 51.6875 -24.575 51.6875 -48.375 51.6875 C-42.95481549 62.85287002 -42.95481549 62.85287002 -33.0625 68.5625 C-26.91448299 70.3707403 -21.30911725 69.9518046 -15.625 66.9375 C-12.29446126 64.85095225 -12.29446126 64.85095225 -10.0625 61.875 C-7.07501293 59.44332447 -6.64308265 59.36092152 -3 59.625 C3.99501449 60.70604769 10.83029951 62.73968586 17.625 64.6875 C14.52150301 75.15243186 6.32532981 83.53013001 -2.85546875 89.2265625 C-14.48791835 95.39446601 -27.31377102 96.65704977 -40.0625 93.125 C-55.26718382 87.83480587 -63.97194313 78.3406829 -70.9296875 64.21484375 C-76.06220343 51.68873055 -76.20858863 37.31350192 -71.6328125 24.578125 C-65.39379217 10.24000374 -56.17533079 1.01851761 -41.9453125 -5.41015625 C-28.29034964 -10.35260914 -11.91803801 -7.96929048 0 0 Z M-44.90234375 23.296875 C-46.95755292 26.46174914 -46.95755292 26.46174914 -49.375 33.6875 C-34.195 33.6875 -19.015 33.6875 -3.375 33.6875 C-4.6598687 27.26315651 -7.24934165 22.23122196 -12.41015625 18.03125 C-23.85359055 10.67322869 -36.12954956 13.0368012 -44.90234375 23.296875 Z " fill="#FCFCFD" transform="translate(602.375,100.3125)"/>
    <path d="M0 0 C7.38499822 5.23711723 13.23636141 13.60001955 15.3125 22.4375 C15.72260755 27.80399145 15.66248496 33.15435109 15.60546875 38.53125 C15.59986527 40.08922922 15.59559873 41.64721377 15.59260559 43.2052002 C15.58121588 47.28233742 15.55180026 51.35914801 15.51849365 55.43615723 C15.48766521 59.60583072 15.4740731 63.7755576 15.45898438 67.9453125 C15.42692402 76.10954073 15.37420509 84.27344195 15.3125 92.4375 C7.3925 92.4375 -0.5275 92.4375 -8.6875 92.4375 C-8.6968457 90.69210938 -8.70619141 88.94671875 -8.71582031 87.1484375 C-8.75146035 81.35677944 -8.80532964 75.56544194 -8.87140274 69.77406311 C-8.91077316 66.26553584 -8.94301207 62.7572556 -8.95849609 59.24853516 C-8.97665344 55.20695442 -9.02664953 51.16629476 -9.078125 47.125 C-9.07935364 45.8757373 -9.08058228 44.62647461 -9.08184814 43.33935547 C-9.22666183 34.66887662 -10.31470404 29.13151462 -16.3125 22.5625 C-21.30921732 19.41641873 -26.19322888 17.89344816 -32.12109375 18.81640625 C-38.37126154 20.66089084 -42.99271558 23.50654971 -46.31958008 29.26000977 C-48.60328803 34.90798345 -48.1686759 41.03139077 -48.19921875 47.02734375 C-48.21716995 48.32700577 -48.23512115 49.62666779 -48.25361633 50.9657135 C-48.30088717 54.39986184 -48.33084372 57.83394554 -48.35705566 61.26831055 C-48.38697786 64.78121704 -48.43346771 68.2939013 -48.47851562 71.80664062 C-48.56428738 78.6834815 -48.63021427 85.56036339 -48.6875 92.4375 C-56.6075 92.4375 -64.5275 92.4375 -72.6875 92.4375 C-72.6875 60.7575 -72.6875 29.0775 -72.6875 -3.5625 C-64.7675 -3.5625 -56.8475 -3.5625 -48.6875 -3.5625 C-48.3575 -1.5825 -48.0275 0.3975 -47.6875 2.4375 C-47.14222656 2.03917969 -46.59695313 1.64085938 -46.03515625 1.23046875 C-31.24593776 -9.15990526 -15.60244842 -9.18574182 0 0 Z " fill="#FCFCFD" transform="translate(501.6875,99.5625)"/>
    <path d="M0 0 C4.20474592 2.36305366 6.81563362 4.93782485 9.5625 8.875 C9.99820313 8.48828125 10.43390625 8.1015625 10.8828125 7.703125 C18.64500833 0.91540397 24.10397135 -2.47030507 34.5625 -2.33203125 C42.24354382 -1.80195922 47.40705027 2.54061926 52.5625 7.875 C57.07814022 13.40665927 57.23246334 18.434569 57.0078125 25.49609375 C56.05653108 32.71415017 51.95487346 36.9490435 46.6015625 41.55078125 C39.60287471 46.09590608 33.60752623 46.33018117 25.41796875 46.30859375 C24.25300369 46.3138356 23.08803864 46.31907745 21.88777161 46.32447815 C19.42933954 46.33088532 16.97087677 46.32957833 14.51245117 46.32104492 C10.77271203 46.31255158 7.03450973 46.34129078 3.29492188 46.37304688 C0.89843795 46.3746596 -1.49804865 46.37407999 -3.89453125 46.37109375 C-5.0021431 46.38232773 -6.10975494 46.39356171 -7.25093079 46.40513611 C-15.25635804 46.33413918 -22.45662095 45.07264919 -28.83984375 39.9453125 C-35.130535 31.97390221 -37.62287996 26.2164183 -36.4375 15.875 C-34.29061528 7.89507001 -28.03175807 3.01773077 -21.1875 -1.0625 C-13.84582531 -3.14264116 -7.00255418 -3.23998776 0 0 Z " fill="#B32525" transform="translate(84.4375,82.125)"/>
    <path d="M0 0 C0.66365067 -0.00671722 1.32730133 -0.01343445 2.01106262 -0.02035522 C4.21155227 -0.03939733 6.41173769 -0.04326306 8.61230469 -0.04541016 C10.14207078 -0.05183594 11.67183563 -0.05856413 13.20159912 -0.06558228 C16.41291144 -0.07757207 19.62411608 -0.08126158 22.83544922 -0.08007812 C26.9424417 -0.07987533 31.04873913 -0.10712854 35.15556717 -0.14162254 C38.31782167 -0.16391215 41.4799098 -0.16791498 44.6422348 -0.16685867 C46.1556512 -0.16921342 47.66907227 -0.17802993 49.18241119 -0.19352341 C51.30568788 -0.21321789 53.42747836 -0.20733279 55.55078125 -0.1953125 C57.36041351 -0.19958755 57.36041351 -0.19958755 59.206604 -0.20394897 C63.98612437 0.5062857 67.0415398 2.76748183 70.37988281 6.17382812 C72.83389175 10.67388259 72.04510843 16.16562561 72.03417969 21.16552734 C72.06253906 22.33728516 72.09089844 23.50904297 72.12011719 24.71630859 C72.14195869 34.33749089 72.14195869 34.33749089 69.31542969 37.98583984 C65.21729635 41.38176494 61.75981211 42.53412728 56.47192383 42.58105469 C55.49063004 42.59381439 54.50933624 42.6065741 53.49830627 42.61972046 C51.92471596 42.62305893 51.92471596 42.62305893 50.31933594 42.62646484 C49.23083847 42.63312164 48.142341 42.63977844 47.02085876 42.64663696 C44.7220122 42.65674857 42.42313636 42.66145445 40.12426758 42.66113281 C36.61262594 42.66550748 33.10223986 42.70184865 29.59082031 42.73974609 C27.35449648 42.74561426 25.11816668 42.74958365 22.88183594 42.75146484 C21.31128197 42.77302139 21.31128197 42.77302139 19.70899963 42.79501343 C13.66995531 42.7572665 10.10184715 42.37211559 5.53417969 38.29052734 C3.30004956 34.93933215 3.29570207 33.87275184 3.33886719 29.96630859 C3.3453125 28.93828125 3.35175781 27.91025391 3.35839844 26.85107422 C3.37515625 25.77921875 3.39191406 24.70736328 3.40917969 23.60302734 C3.41820312 22.51957031 3.42722656 21.43611328 3.43652344 20.31982422 C3.46010629 17.64317024 3.49301842 14.96695937 3.53417969 12.29052734 C2.91422119 12.30792969 2.2942627 12.32533203 1.65551758 12.34326172 C0.84332764 12.35679687 0.0311377 12.37033203 -0.80566406 12.38427734 C-1.61124756 12.40167969 -2.41683105 12.41908203 -3.24682617 12.43701172 C-6.08106421 12.24991272 -7.5162814 11.32482881 -9.46582031 9.29052734 C-8.6114428 1.6011297 -7.815405 0.04951758 0 0 Z " fill="#B22222" transform="translate(57.4658203125,133.70947265625)"/>
    <path d="M0 0 C7.92 0 15.84 0 24 0 C24 31.68 24 63.36 24 96 C16.08 96 8.16 96 0 96 C0 64.32 0 32.64 0 0 Z " fill="#FCFCFC" transform="translate(383,96)"/>
    <path d="M0 0 C3.4375 0.75 3.4375 0.75 5.4375 2.75 C5.66226689 5.78831951 5.7656938 8.73268466 5.7734375 11.7734375 C5.7800943 12.67115875 5.7867511 13.56888 5.79360962 14.49380493 C5.80374583 16.39526314 5.80842634 18.29675699 5.80810547 20.19824219 C5.81247255 23.10671778 5.84876419 26.01366873 5.88671875 28.921875 C5.89258793 30.76822397 5.89655665 32.61458016 5.8984375 34.4609375 C5.91280853 35.3308432 5.92717957 36.2007489 5.94198608 37.09701538 C5.89637493 43.13149834 5.89637493 43.13149834 3.55029297 46.29370117 C1.4375 47.75 1.4375 47.75 -0.828125 48.33984375 C-5.05860165 47.4272695 -7.93912495 44.93515286 -11.3125 42.3125 C-11.99699219 41.79623047 -12.68148437 41.27996094 -13.38671875 40.74804688 C-19.50901813 36.11085972 -19.50901813 36.11085972 -19.88232422 33.59204102 C-21.42885195 14.90349123 -21.42885195 14.90349123 -18.33056641 9.66845703 C-14.9658311 6.08059884 -10.94098925 3.89834964 -6.5625 1.75 C-3.5625 -0.25 -3.5625 -0.25 0 0 Z " fill="#B22424" transform="translate(154.5625,128.25)"/>
    <path d="M0 0 C4.33976986 2.25334204 7.09688482 4.45366929 9 9 C9.56796579 14.20635305 8.88868756 17.6171637 6 22 C2.3704001 25.20258815 -1.10711906 25.51906333 -5.78125 25.35546875 C-9.26723014 24.79697545 -11.38200616 23.29872629 -14 21 C-16.53344704 16.80096494 -16.94110392 12.78595582 -16 8 C-12.06111436 1.30265187 -7.7802236 -0.65934098 0 0 Z " fill="#FCFCFD" transform="translate(399,59)"/>
    <path d="M0 0 C4.36350222 2.22291622 7.09544338 4.45022584 9 9 C9.54223844 13.26044487 9.30065535 15.42096006 7.3125 19.25 C3.94903439 23.24979694 1.73927592 24.81364901 -3.5 25.375 C-8.43217625 24.84655254 -10.72324761 23.17323192 -14.3125 19.875 C-16.66546611 15.86624293 -16.67732036 12.5430024 -16 8 C-13.09459617 0.96586442 -7.34723746 -1.29657132 0 0 Z " fill="#B12222" transform="translate(871,170)"/>
    <path d="M0 0 C3.59470303 1.45170699 6.5695997 2.93002067 9 6 C10.21762731 9.65288193 10.39075851 12.15754136 10 16 C7.96666854 19.45430827 5.33156718 21.77895521 2 24 C-2.18614674 24.60362041 -5.93436214 24.41698873 -9.875 22.875 C-13.57262979 19.61238548 -14.77571446 16.37063386 -15.5625 11.5625 C-14.80560069 6.76880434 -12.51963116 4.22784827 -9 1 C-5.92805092 -0.53597454 -3.39755707 -0.2265038 0 0 Z " fill="#FAF6F7" transform="translate(119,92)"/>
    <path d="M0 0 C4.33219178 2.75684932 4.33219178 2.75684932 5.75 5.75 C6.48324046 10.4934321 6.19030418 13.85308408 4.0625 18.1875 C0.65350431 21.96503576 -1.70163109 22.58108703 -6.6875 23.125 C-10.94199062 22.67715888 -12.9583785 21.4292268 -16.25 18.75 C-19.0788298 14.5067553 -18.90268001 10.73265471 -18.25 5.75 C-14.02416083 -1.49429572 -7.78127232 -2.99279704 0 0 Z " fill="#FAF7F8" transform="translate(79.25,93.25)"/>
</svg>
