<?xml version="1.0" encoding="UTF-8"?>
<svg version="1.1" xmlns="http://www.w3.org/2000/svg" width="1301" height="320">
<path d="M0 0 C1.19524796 -0.00686325 2.39049591 -0.0137265 3.6219635 -0.02079773 C6.86407479 -0.03583768 10.10582018 -0.03759398 13.34795094 -0.03185534 C16.07346924 -0.02873604 18.79893709 -0.0348864 21.52444816 -0.04089409 C27.96604959 -0.0548814 34.40751826 -0.05342816 40.84912109 -0.04199219 C47.44979941 -0.03053125 54.05007043 -0.04456551 60.65069509 -0.07138866 C66.3573257 -0.09369325 72.06382988 -0.10014974 77.7705009 -0.09431225 C81.16130127 -0.09097465 84.55184119 -0.09313976 87.94260406 -0.11056328 C105.09653846 -0.17863179 121.37472351 -0.15650896 136.85449219 8.21655273 C137.51860107 8.56419678 138.18270996 8.91184082 138.86694336 9.27001953 C144.19059421 12.12888452 148.94739794 15.3177996 153.41699219 19.40405273 C154.75503906 20.60481445 154.75503906 20.60481445 156.12011719 21.82983398 C166.07095658 31.22331762 173.10282997 42.37009975 177.41699219 55.40405273 C177.66414978 56.10439133 177.91130737 56.80472992 178.16595459 57.52629089 C181.47846891 68.44034106 180.87031891 79.68694973 180.85058594 90.98217773 C180.8551557 93.28082431 180.86046361 95.57946952 180.86647034 97.87811279 C180.8753732 102.68255177 180.87301156 107.48682428 180.86303711 112.29125977 C180.85156754 118.40799041 180.87174324 124.524142 180.90095425 130.64079666 C180.91942078 135.38529025 180.91900277 140.12964784 180.91331673 144.8741684 C180.9131647 147.12731486 180.91910927 149.38047126 180.9316082 151.63358307 C181.00725631 167.50698625 180.33896571 182.54237934 172.60449219 196.84155273 C172.25684814 197.50566162 171.9092041 198.16977051 171.55102539 198.85400391 C168.6921604 204.17765475 165.50324532 208.93445849 161.41699219 213.40405273 C160.61648437 214.29608398 159.81597656 215.18811523 158.99121094 216.10717773 C145.72914934 230.15613445 126.92613697 240.1215488 107.33612061 240.79173279 C105.16883231 240.8122718 103.00135186 240.81697069 100.83398438 240.80810547 C99.04111244 240.81840034 99.04111244 240.81840034 97.21202087 240.8289032 C93.96990959 240.84394315 90.7281642 240.84569945 87.48603344 240.83996081 C84.76051513 240.83684151 82.03504728 240.84299187 79.30953622 240.84899956 C72.86793478 240.86298687 66.42646611 240.86153362 59.98486328 240.85009766 C53.38418496 240.83863672 46.78391395 240.85267098 40.18328929 240.87949413 C34.47665867 240.90179872 28.7701545 240.90825521 23.06348348 240.90241772 C19.6726831 240.89908011 16.28214319 240.90124523 12.89138031 240.91866875 C-4.26255409 240.98673726 -20.54073914 240.96461442 -36.02050781 232.59155273 C-36.6846167 232.24390869 -37.34872559 231.89626465 -38.03295898 231.53808594 C-43.35660983 228.67922095 -48.11341356 225.49030587 -52.58300781 221.40405273 C-53.47503906 220.60354492 -54.36707031 219.80303711 -55.28613281 218.97827148 C-65.23697221 209.58478785 -72.2688456 198.43800572 -76.58300781 185.40405273 C-76.83016541 184.70371414 -77.077323 184.00337555 -77.33197021 183.28181458 C-80.64448454 172.36776441 -80.03633454 161.12115574 -80.01660156 149.82592773 C-80.02117132 147.52728116 -80.02647924 145.22863595 -80.03248596 142.92999268 C-80.04138883 138.1255537 -80.03902718 133.32128119 -80.02905273 128.5168457 C-80.01758317 122.40011505 -80.03775887 116.28396347 -80.06696987 110.16730881 C-80.08543641 105.42281522 -80.08501839 100.67845763 -80.07933235 95.93393707 C-80.07918033 93.6807906 -80.0851249 91.42763421 -80.09762383 89.1745224 C-80.17327193 73.30111922 -79.50498133 58.26572612 -71.77050781 43.96655273 C-71.42286377 43.30244385 -71.07521973 42.63833496 -70.71704102 41.95410156 C-67.85817602 36.63045071 -64.66926095 31.87364698 -60.58300781 27.40405273 C-59.7825 26.51202148 -58.98199219 25.61999023 -58.15722656 24.70092773 C-42.77553804 8.40657752 -22.30482062 -0.09123377 0 0 Z " fill="#FBFBFC" transform="translate(84.5830078125,39.595947265625)"/>
<path d="M0 0 C9.9 0 19.8 0 30 0 C30.33 23.76 30.66 47.52 31 72 C33.64 69.36 36.28 66.72 39 64 C49.89155773 56.32404503 61.49380272 54.55775302 74.52734375 56.53515625 C91.62597161 59.93260348 106.93326869 67.99038344 117.16210938 82.66748047 C127.13713796 98.19229905 130.6087831 115.09473538 127.6015625 133.42919922 C123.64300283 150.75931668 112.75467362 165.20558702 98 175 C83.25105712 182.99641482 67.90437388 186.25883244 51.296875 182.14453125 C43.16678262 179.32211766 36.71466426 174.3324658 31 168 C30.67 171.96 30.34 175.92 30 180 C20.1 180 10.2 180 0 180 C0 120.6 0 61.2 0 0 Z M40.25 96.8125 C33.34971484 106.58790398 31.48829574 116.95539653 33.4609375 128.7578125 C35.88934046 137.87146595 41.12576007 145.7279767 49 151 C56.24632183 154.88195812 63.92109185 155.00574163 72 154 C82.83749796 150.47906172 89.76240904 143.97935003 95.0546875 134.11328125 C98.58000131 126.23231112 98.41258149 114.6359049 95.4375 106.5625 C90.71389276 96.76965572 84.11474442 90.02113686 73.828125 86.19140625 C60.40966803 82.42071582 49.55540543 87.29560808 40.25 96.8125 Z " fill="#FCFCFD" transform="translate(801,60)"/>
<path d="M0 0 C0.60972656 0.47953125 1.21945312 0.9590625 1.84765625 1.453125 C6.71574185 5.34759348 10.33254166 9.9837196 14 15 C9.2996585 19.19030444 3.91464957 21.9105991 -1.625 24.8125 C-2.57890625 25.32748047 -3.5328125 25.84246094 -4.515625 26.37304688 C-5.43085938 26.85451172 -6.34609375 27.33597656 -7.2890625 27.83203125 C-8.12131348 28.27264893 -8.95356445 28.7132666 -9.81103516 29.16723633 C-12 30 -12 30 -15 29 C-15.92232422 27.84177734 -15.92232422 27.84177734 -16.86328125 26.66015625 C-22.92300217 19.11596987 -34.43006841 13.44020068 -44 12 C-60.86878968 10.74529664 -73.87128271 13.92852799 -87.21875 24.80859375 C-99.08728671 35.7869902 -104.62607001 51.61578246 -105.25 67.5 C-104.98087768 83.64733948 -99.55568041 98.23383941 -88.24609375 109.88671875 C-76.39542936 121.03664821 -64.34615158 124.44505937 -48.453125 124.2109375 C-36.35571807 123.80230949 -24.37048828 117.71214086 -16 109 C-15.34 108.01 -14.68 107.02 -14 106 C-8.11635075 107.64898296 -3.00977063 110.51120497 2.3125 113.4375 C3.23095703 113.92798828 4.14941406 114.41847656 5.09570312 114.92382812 C5.96775391 115.40142578 6.83980469 115.87902344 7.73828125 116.37109375 C8.53274658 116.80349365 9.32721191 117.23589355 10.14575195 117.68139648 C12 119 12 119 13 122 C2.96474897 137.96868994 -16.06212979 149.41259263 -34.0625 154.1875 C-56.28978808 158.53887386 -79.2736393 154.84851562 -98.28710938 142.22900391 C-118.30176906 127.86842853 -131.12398328 106.65433104 -135.17529297 82.45825195 C-138.86505747 57.50881694 -132.95316079 33.23512306 -118 13 C-115.16751484 9.47773866 -112.19241357 6.19800448 -109 3 C-108.31550781 2.30390625 -107.63101562 1.6078125 -106.92578125 0.890625 C-77.59721888 -27.08264336 -29.97196608 -26.17094751 0 0 Z " fill="#FCFCFD" transform="translate(450,88)"/>
<path d="M0 0 C9.9 0 19.8 0 30 0 C30.33 22.44 30.66 44.88 31 68 C34.3 65.69 37.6 63.38 41 61 C44.20703125 59.4765625 44.20703125 59.4765625 46.8125 58.625 C48.12154297 58.18027344 48.12154297 58.18027344 49.45703125 57.7265625 C62.46618483 54.00966148 75.43625322 55.68697099 87.25 62.1875 C99.40818726 69.7962743 106.97411083 80.3032699 110.3664093 94.2711792 C111.65058984 101.82886449 111.36271434 109.46560079 111.29296875 117.109375 C111.28736172 118.93068082 111.28309687 120.75199122 111.28010559 122.57330322 C111.26874387 127.32768622 111.2393531 132.08178684 111.20599365 136.83605957 C111.175104 141.70316755 111.16156018 146.5703219 111.14648438 151.4375 C111.11447359 160.95847628 111.06177831 170.4791703 111 180 C101.1 180 91.2 180 81 180 C80.98541748 177.89633057 80.97083496 175.79266113 80.95581055 173.62524414 C80.90530801 166.64820364 80.83868597 159.67138265 80.76428509 152.69455814 C80.71969708 148.46753435 80.68041603 144.24060436 80.65356445 140.01342773 C80.62741528 135.9283612 80.58693237 131.84365794 80.53681374 127.75881767 C80.52022309 126.20608502 80.50866049 124.65328964 80.50238609 123.10048103 C80.45488677 112.41871567 80.21862737 102.58431363 73 94 C65.29981354 88.24824129 58.56440711 87.06316741 49 88 C42.49758575 89.89579925 38.13084216 93.22568322 34.15625 98.64453125 C30.04287223 107.0241488 30.65430695 116.20879954 30.5859375 125.3125 C30.56720326 126.89291367 30.54762821 128.47331758 30.5272522 130.05371094 C30.47616299 134.18982151 30.43641389 138.32596444 30.39910889 142.46221924 C30.35892278 146.69234058 30.30789746 150.92233008 30.2578125 155.15234375 C30.16132838 163.43481192 30.07783983 171.7173356 30 180 C20.1 180 10.2 180 0 180 C0 120.6 0 61.2 0 0 Z " fill="#FCFCFC" transform="translate(945,60)"/>
<path d="M0 0 C12.80612587 10.85959473 21.27524605 26.31238577 23.1796875 43.01953125 C23.69765615 49.4562392 23.67296841 54.7892211 22.75 61.25 C-20.315 61.745 -20.315 61.745 -64.25 62.25 C-57.99328025 75.30324382 -57.99328025 75.30324382 -46.52734375 82.77734375 C-38.88546909 84.36339321 -29.8130611 84.77176648 -22.9609375 80.59765625 C-19.7676517 78.08239688 -16.98348632 75.24944715 -14.25 72.25 C-13.59 71.59 -12.93 70.93 -12.25 70.25 C-9.26904297 70.66552734 -9.26904297 70.66552734 -5.4921875 71.5859375 C-4.82913605 71.74413971 -4.16608459 71.90234192 -3.48294067 72.06533813 C-1.36082351 72.57433257 0.75693143 73.09943895 2.875 73.625 C4.31094032 73.97242057 5.74713578 74.31878845 7.18359375 74.6640625 C10.70877389 75.51383586 14.23021801 76.37810423 17.75 77.25 C16.40820456 81.47647381 14.98588021 84.71541395 12.375 88.3125 C11.49714844 89.53646484 11.49714844 89.53646484 10.6015625 90.78515625 C9.99054688 91.59855469 9.37953125 92.41195312 8.75 93.25 C8.12996094 94.08402344 7.50992188 94.91804688 6.87109375 95.77734375 C-2.77650554 107.02399264 -17.56762245 113.85090794 -32.1875 115.0625 C-48.06597224 115.89243987 -62.84412602 111.83361579 -75.13745117 101.33789062 C-88.05833066 89.6645303 -96.59318434 74.12347091 -97.5703125 56.5703125 C-98.17988076 38.29031171 -94.08428071 21.89081017 -81.75 7.8125 C-80.26835793 6.27377624 -78.7700078 4.75083653 -77.25 3.25 C-76.70988281 2.68796875 -76.16976562 2.1259375 -75.61328125 1.546875 C-54.82312232 -18.35302523 -21.88143187 -16.53634927 0 0 Z M-60.25 25.25 C-63.04716246 29.75461151 -64.96438781 34.10755124 -66.25 39.25 C-47.11 39.25 -27.97 39.25 -8.25 39.25 C-9.73913782 30.31517309 -14.16572379 23.91455284 -21.25 18.25 C-34.32735142 9.55740759 -50.44308186 13.94747342 -60.25 25.25 Z " fill="#FCFCFD" transform="translate(762.25,128.75)"/>
<path d="M0 0 C9.92872675 9.39794576 15.4998445 21.00403619 15.93275452 34.67160034 C15.9356243 36.11163219 15.93306126 37.5516817 15.92602539 38.99169922 C15.92617142 39.78261459 15.92631744 40.57352997 15.9264679 41.38841248 C15.92577489 43.98553269 15.91801129 46.58257991 15.91015625 49.1796875 C15.9082899 50.9871517 15.90686702 52.79461641 15.90586853 54.6020813 C15.90206049 59.34657196 15.89224488 64.09103174 15.88116455 68.83551025 C15.87091355 73.68200259 15.86636302 78.52849994 15.86132812 83.375 C15.85062102 92.87501571 15.83303815 102.37500045 15.8125 111.875 C5.9125 111.875 -3.9875 111.875 -14.1875 111.875 C-14.23648438 106.99847656 -14.28546875 102.12195313 -14.3359375 97.09765625 C-14.37135501 93.99412084 -14.40733275 90.89061191 -14.4453125 87.78710938 C-14.50544082 82.86942489 -14.56358024 77.95177713 -14.609375 73.03393555 C-14.64645801 69.06564716 -14.69287779 65.09756447 -14.74556351 61.12945366 C-14.76398597 59.62136916 -14.77913792 58.11324078 -14.79084396 56.60508919 C-14.63794357 40.05306198 -14.63794357 40.05306198 -22.828125 26.24609375 C-29.12200862 20.56791613 -34.37267338 19.34130141 -42.828125 19.50390625 C-49.9113096 20.28635106 -55.2173339 23.21345693 -59.6875 28.75 C-63.69383619 34.31694389 -64.43563578 40.57320993 -64.50634766 47.27905273 C-64.51639328 47.982332 -64.5264389 48.68561127 -64.53678894 49.41020203 C-64.56741174 51.70965843 -64.58459709 54.00899958 -64.6015625 56.30859375 C-64.62029104 57.91285683 -64.63986569 59.51711023 -64.6602478 61.12135315 C-64.71139711 65.32488276 -64.75111441 69.52844424 -64.78839111 73.7321167 C-64.82853911 78.02917251 -64.879582 82.32609768 -64.9296875 86.62304688 C-65.02624297 95.04028157 -65.10970432 103.45757099 -65.1875 111.875 C-75.0875 111.875 -84.9875 111.875 -95.1875 111.875 C-95.1875 72.275 -95.1875 32.675 -95.1875 -8.125 C-85.2875 -8.125 -75.3875 -8.125 -65.1875 -8.125 C-64.8575 -5.485 -64.5275 -2.845 -64.1875 -0.125 C-63.27871094 -0.81335938 -63.27871094 -0.81335938 -62.3515625 -1.515625 C-42.8969272 -15.76240408 -18.81767958 -15.89426933 0 0 Z " fill="#FBFBFC" transform="translate(636.1875,128.125)"/>
<path d="M0 0 C2.60553787 2.08908305 4.12185071 3.62027607 6 6.4375 C6.47308594 5.91800781 6.94617188 5.39851563 7.43359375 4.86328125 C14.03804398 -2.1016458 20.5683996 -6.9130156 30.32421875 -7.765625 C40.36721196 -7.96482487 48.63329882 -5.58066908 56 1.4375 C62.27942733 8.31496803 65.70004192 15.45490507 65.33984375 24.86328125 C64.17269944 33.704064 59.67468635 40.65277183 53 46.4375 C46.04938445 50.87023655 39.8489566 52.54172939 31.64013672 52.61450195 C29.7419368 52.63375481 29.7419368 52.63375481 27.8053894 52.65339661 C26.43015947 52.6615677 25.05492504 52.66901072 23.6796875 52.67578125 C22.98088596 52.67985678 22.28208443 52.6839323 21.56210709 52.68813133 C17.8600927 52.70894523 14.15811481 52.72326464 10.45605469 52.73266602 C6.66017883 52.74369495 2.86489487 52.77806672 -0.93077278 52.81783772 C-3.87359598 52.84416948 -6.8162819 52.85237257 -9.75921249 52.85594749 C-11.15686903 52.86077424 -12.55452108 52.87227446 -13.9520607 52.89098549 C-24.90299949 53.02844129 -35.24401996 52.01634906 -43.50390625 44.1328125 C-49.81903434 36.97676657 -52.56052352 29.24228673 -52.234375 19.71875 C-51.14934745 9.15781513 -44.94551974 2.55876645 -37 -4.0625 C-24.25038058 -10.43730971 -11.15458957 -8.42394604 0 0 Z " fill="#B22424" transform="translate(117,107.5625)"/>
<path d="M0 0 C0.79742615 -0.0071553 1.59485229 -0.01431061 2.41644287 -0.02168274 C5.04603829 -0.03855603 7.67392487 -0.01917113 10.3034668 0.00219727 C12.13803752 0.00136819 13.97260817 -0.00109265 15.80717468 -0.00511169 C19.65146254 -0.00796908 23.49516763 0.00672112 27.33935547 0.03417969 C32.2521117 0.0681903 37.1638211 0.06226775 42.07662678 0.04351711 C45.86609008 0.03291334 49.65531267 0.04191673 53.44475365 0.05690193 C55.25513175 0.06206432 57.0655352 0.06162566 58.87590981 0.05535698 C61.41521207 0.04986668 63.95305214 0.07040253 66.4921875 0.09765625 C67.23168137 0.09113037 67.97117523 0.08460449 68.733078 0.07788086 C74.1734486 0.17647251 78.38269826 1.63257014 82.94018555 4.63110352 C88.85525001 11.00117294 88.19110443 16.85637534 88.23535156 25.12426758 C88.25251538 27.3589482 88.29639398 29.59212973 88.34057617 31.82641602 C88.35070798 33.25609267 88.35922256 34.68578187 88.3659668 36.11547852 C88.38054932 37.41195312 88.39513184 38.70842773 88.41015625 40.04418945 C87.67281717 45.67171456 85.41446409 48.42192483 81.09033203 51.96850586 C75.39713878 54.87968118 68.77266749 54.24708078 62.5378418 54.23266602 C61.1321106 54.24045333 59.72638405 54.24912541 58.32066345 54.25863647 C55.38289087 54.27350702 52.44559922 54.27301826 49.5078125 54.26245117 C45.76052118 54.25086255 42.01520738 54.28473918 38.26824284 54.33114052 C35.36747417 54.36073963 32.46717523 54.36234238 29.56628227 54.35612106 C28.18568439 54.35714116 26.80505801 54.36749732 25.42460823 54.3877449 C17.86486377 54.48504066 12.26978535 54.35971347 6.37449646 49.3086853 C3.00935774 45.3727915 2.69841984 42.22533128 2.74487305 37.11547852 C2.75131836 35.86508789 2.75776367 34.61469727 2.7644043 33.32641602 C2.78116211 32.02446289 2.79791992 30.72250977 2.81518555 29.38110352 C2.82420898 28.06368164 2.83323242 26.74625977 2.8425293 25.38891602 C2.86610022 22.1361289 2.89900532 18.88370763 2.94018555 15.63110352 C1.68866699 15.66917114 1.68866699 15.66917114 0.41186523 15.70800781 C-0.67707031 15.72774658 -1.76600586 15.74748535 -2.88793945 15.76782227 C-3.96978516 15.79320068 -5.05163086 15.8185791 -6.16625977 15.84472656 C-9.05981445 15.63110352 -9.05981445 15.63110352 -11.80981445 13.44360352 C-13.17734992 10.36664872 -13.80048534 8.9229741 -13.05981445 5.63110352 C-9.20433622 0.66460256 -6.02086233 -0.09442098 0 0 Z " fill="#B22323" transform="translate(78.059814453125,166.368896484375)"/>
<path d="M0 0 C9.9 0 19.8 0 30 0 C30 39.6 30 79.2 30 120 C20.1 120 10.2 120 0 120 C0 80.4 0 40.8 0 0 Z " fill="#FBFBFD" transform="translate(484,120)"/>
<path d="M0 0 C2.98783403 2.06354005 4.74232834 3.70936379 5.46948242 7.3515625 C5.66327845 10.32861066 5.69275894 13.26671285 5.6640625 16.25 C5.66884613 17.34086914 5.67362976 18.43173828 5.67855835 19.55566406 C5.68195613 21.85873865 5.67276243 24.16186155 5.65185547 26.46484375 C5.6250906 29.98807417 5.65161001 33.50811856 5.68359375 37.03125 C5.68028963 39.27084036 5.67388337 41.51042874 5.6640625 43.75 C5.67418365 44.80219727 5.68430481 45.85439453 5.69473267 46.93847656 C5.57808151 54.22526083 5.57808151 54.22526083 2.63818359 58.1652832 C0 60 0 60 -2.875 60.60546875 C-6.98592762 59.80897652 -9.7514345 57.81276057 -13 55.3125 C-13.88558594 54.65991211 -13.88558594 54.65991211 -14.7890625 53.99414062 C-15.97271643 53.11422168 -17.14100538 52.21325445 -18.29296875 51.29223633 C-20.20438235 49.78556694 -20.20438235 49.78556694 -23.375 48.09375 C-26.59890925 45.358263 -26.59755227 42.29989045 -26.9375 38.23046875 C-26.97702299 36.23554599 -27.01531058 34.24014257 -27.00195312 32.24487305 C-27.00001043 30.1984882 -27.0830716 28.1672517 -27.171875 26.12304688 C-27.20995387 16.48433314 -27.20995387 16.48433314 -23.88769531 12.40869141 C-21.35197012 10.37019501 -18.79305458 8.66290595 -16 7 C-15.02546875 6.236875 -14.0509375 5.47375 -13.046875 4.6875 C-12.28890625 4.130625 -11.5309375 3.57375 -10.75 3 C-9.59757812 2.13375 -9.59757812 2.13375 -8.421875 1.25 C-5.28150025 -0.37083858 -3.49063235 -0.5787577 0 0 Z " fill="#B22323" transform="translate(200,160)"/>
<path d="M0 0 C4.23301121 2.82200747 7.17159664 5.95228992 8.8125 10.875 C9.39310742 16.79719564 8.30306625 21.1141981 4.8125 25.875 C1.37002402 29.05884437 -2.11260802 30.11732357 -6.75 30.3125 C-10.84725017 30.10345662 -13.739276 29.20054642 -17.1875 26.875 C-21.85680962 21.70090015 -22.55037625 18.47878291 -22.4609375 11.63671875 C-22.07130138 7.70139396 -20.90101411 5.72766868 -18.1875 2.875 C-12.47530497 -1.73813979 -6.99463339 -2.46869414 0 0 Z " fill="#FCFCFD" transform="translate(506.1875,75.125)"/>
<path d="M0 0 C4.43589667 1.75571392 6.5252486 4.22852897 9 8.25 C10.61057286 14.28964821 10.12757822 18.82538486 7.25 24.375 C3.99308033 28.17473962 1.48400527 29.64273947 -3.375 30.8125 C-8.92976931 31.09981565 -12.53201497 30.2396318 -16.8125 26.625 C-20.729774 21.9242712 -21.44967098 18.5100846 -21.31640625 12.46875 C-20.84613026 8.79943611 -19.4200872 6.74712601 -17 4 C-16.34 3.21625 -15.68 2.4325 -15 1.625 C-10.14825598 -1.00302801 -5.38295417 -0.81279043 0 0 Z " fill="#FCFCFD" transform="translate(1095,213)"/>
<path d="M0 0 C4.98669007 2.49334503 8.49675474 5.99350949 11 11 C11.40399154 16.25189007 10.88990343 19.56881474 8 24 C4.02316963 27.93441085 0.8752584 30.15056074 -4.75 30.3125 C-10.56482618 30.26215518 -13.48499847 28.16810476 -17.8125 24.4375 C-20.76124497 20.86796662 -20.44709061 16.19818238 -20.41796875 11.80078125 C-19.75419507 7.35287722 -17.47122656 4.73080438 -14 2 C-9.53951788 -0.72585018 -5.08506619 -0.65172526 0 0 Z " fill="#FAF6F7" transform="translate(101,115)"/>
<path d="M0 0 C3.02341645 2.50908814 4.42375073 4.56207964 5.0078125 8.48046875 C5.31620911 13.99422641 4.380574 18.20600499 0.69921875 22.41015625 C-3.3813304 25.9832796 -7.64759134 27.13115317 -13.0234375 26.85546875 C-17.1391659 26.05067795 -20.24584816 24.25712441 -23.30078125 21.41015625 C-26.07933995 16.72133844 -26.98983499 12.82414995 -26.30078125 7.41015625 C-23.99460201 3.20961549 -21.1115196 -1.3852416 -16.55078125 -3.33984375 C-9.6714845 -4.10421006 -5.74000522 -4.04845162 0 0 Z " fill="#FAF8F9" transform="translate(161.30078125,118.58984375)"/>
</svg>
